<svg xmlns="http://www.w3.org/2000/svg" viewBox="0 0 512 512"><defs><style>.cls-1{fill:#da8ab3;}.cls-2{fill:#e5b8d2;}.cls-3{fill:#4e5e9c;}.cls-4{fill:#334079;}.cls-5{fill:#62ab8b;}.cls-6{fill:#2f3c67;}.cls-7{fill:#54937c;}.cls-8{fill:#2b3060;}.cls-9{fill:#4c856f;}.cls-10{fill:#40705e;}.cls-11{fill:#495a89;}.cls-12{fill:#83b3d0;}.cls-13{fill:#91c7ee;}.cls-14{fill:#bdddef;}.cls-15{fill:#75baa1;}.cls-16{fill:#62ac8d;}.cls-17{fill:#ce404a;}.cls-18{fill:#f0c85c;}.cls-19{fill:#7facc8;}.cls-20{fill:#539179;}.cls-21{fill:#a73a46;}.cls-22{fill:#cba751;}</style></defs><title>Artificial Intelligence</title><g id="BULINE"><circle class="cls-1" cx="256" cy="256" r="256"/></g><g id="Icons"><path class="cls-2" d="M469.87,115.25C464.71,199.74,410.56,271,335.46,301a213.55,213.55,0,0,1-79.33,15.18,215.38,215.38,0,0,1-33.82-2.66q-7-1.1-13.8-2.66-10.09-2.28-19.82-5.52-6-2-11.89-4.34c-75.21-30-129.4-101.43-134.42-186.08a256.07,256.07,0,0,1,427.49.38Z"/><path class="cls-3" d="M170.16,353.67V497.24Q165,495.42,160,493.36l-.83-.33a255,255,0,0,1-31-15.19V353.67Z"/><path class="cls-3" d="M388.46,353.67V475.11a255,255,0,0,1-34.31,17.39q-3.81,1.59-7.68,3.05V353.67Z"/><circle class="cls-4" cx="375.84" cy="330.43" r="34.84"/><circle class="cls-5" cx="375.84" cy="330.43" r="14.61"/><path class="cls-6" d="M355.61,330.43a34.85,34.85,0,0,1,27.53-34.07,34.84,34.84,0,1,0-7.3,68.91,34.51,34.51,0,0,0,7.3-.78A34.84,34.84,0,0,1,355.61,330.43Z"/><path class="cls-7" d="M375.84,330.43a14.59,14.59,0,0,1,7.3-12.65,14.61,14.61,0,1,0,0,25.3A14.6,14.6,0,0,1,375.84,330.43Z"/><circle class="cls-4" cx="142.77" cy="330.43" r="34.84"/><circle class="cls-5" cx="142.77" cy="330.43" r="14.61"/><path class="cls-6" d="M163,330.43a34.85,34.85,0,0,1-27.54,34.06,34.84,34.84,0,1,0,7.3-68.9,35.18,35.18,0,0,0-7.3.77A34.86,34.86,0,0,1,163,330.43Z"/><path class="cls-7" d="M142.77,330.43a14.6,14.6,0,0,1-7.3,12.65,14.61,14.61,0,1,0,0-25.3A14.59,14.59,0,0,1,142.77,330.43Z"/><rect class="cls-8" x="230.8" y="262.67" width="52.43" height="46"/><polygon class="cls-3" points="377.18 183.72 348.39 181.04 348.39 195.04 377.18 192.36 377.18 183.72"/><path class="cls-9" d="M367.47,188a12.72,12.72,0,1,1,12.72,12.72,12.56,12.56,0,0,1-4.35-.77A12.73,12.73,0,0,1,367.47,188Z"/><ellipse class="cls-10" cx="375.84" cy="188.04" rx="8.37" ry="11.96"/><polygon class="cls-3" points="132.5 192.35 161.29 195.03 161.29 181.04 132.5 183.72 132.5 192.35"/><path class="cls-8" d="M177.35,167.71h9.49a0,0,0,0,1,0,0v40.82a0,0,0,0,1,0,0h-9.49a20.41,20.41,0,0,1-20.41-20.41v0A20.41,20.41,0,0,1,177.35,167.71Z"/><path class="cls-8" d="M344.7,167.71h9.49a0,0,0,0,1,0,0v40.82a0,0,0,0,1,0,0H344.7a20.41,20.41,0,0,1-20.41-20.41v0A20.41,20.41,0,0,1,344.7,167.71Z" transform="translate(678.48 376.23) rotate(180)"/><path class="cls-11" d="M342.2,139.94a85.91,85.91,0,0,1-6.72,33.39,71.23,71.23,0,0,0-5.61,27.7v.15a73.69,73.69,0,1,1-147.38,0V201A73.08,73.08,0,0,0,176.72,173a86.07,86.07,0,0,1,78.86-119,84.72,84.72,0,0,1,13,.89A86,86,0,0,1,342.2,139.94Z"/><path class="cls-3" d="M342.2,139.94a85.91,85.91,0,0,1-6.72,33.39,71.23,71.23,0,0,0-5.61,27.7v.15a73.68,73.68,0,0,1-61.22,72.64,73.71,73.71,0,0,1-61.23-72.64V201A73.07,73.07,0,0,0,201.66,173,86.08,86.08,0,0,1,268.59,54.82,86,86,0,0,1,342.2,139.94Z"/><path class="cls-12" d="M285.69,58.81l-4.15,60a24.82,24.82,0,0,1-24.77,23.12h-1.18a24.84,24.84,0,0,1-24.78-23.12l-4.14-60a12.84,12.84,0,0,1,12.81-13.73h33.39A12.85,12.85,0,0,1,285.69,58.81Z"/><path class="cls-13" d="M285.69,58.81l-4.15,60A24.83,24.83,0,0,1,266.47,140a24.83,24.83,0,0,1-15.07-21.15l-4.15-60a12.85,12.85,0,0,1,12.82-13.73h12.8A12.85,12.85,0,0,1,285.69,58.81Z"/><rect class="cls-4" x="195.09" y="145.38" width="123.84" height="54.68" rx="18.18"/><circle class="cls-13" cx="222.2" cy="172.72" r="15.4"/><circle class="cls-14" cx="222.2" cy="172.72" r="8.32"/><circle class="cls-13" cx="292.16" cy="172.72" r="15.4"/><circle class="cls-14" cx="292.16" cy="172.72" r="8.32"/><path class="cls-9" d="M300.48,230v13.8a3.73,3.73,0,0,1-3.73,3.72H215.52a3.73,3.73,0,0,1-3.73-3.72V230a3.72,3.72,0,0,1,3.73-3.72h81.23A3.72,3.72,0,0,1,300.48,230Z"/><rect class="cls-15" x="221.54" y="226.23" width="8.32" height="21.24"/><rect class="cls-15" x="236.93" y="226.23" width="8.32" height="21.24"/><rect class="cls-15" x="266.89" y="226.23" width="8.32" height="21.24"/><rect class="cls-15" x="282.28" y="226.23" width="8.32" height="21.24"/><rect class="cls-15" x="251.97" y="226.23" width="8.32" height="21.24"/><path class="cls-9" d="M142.21,188a12.73,12.73,0,0,1-8.37,12,12.56,12.56,0,0,1-4.35.77A12.72,12.72,0,1,1,142.21,188Z"/><ellipse class="cls-10" cx="133.84" cy="188.04" rx="8.37" ry="11.96"/><path class="cls-8" d="M234.25,145.38h44.85a0,0,0,0,1,0,0v0a11.95,11.95,0,0,1-11.95,11.95h-21a11.95,11.95,0,0,1-11.95-11.95v0A0,0,0,0,1,234.25,145.38Z"/><path class="cls-13" d="M367.74,342.3l0,.27-1,11.1-.19,2.08-.73,8.05-2.9,32.09-8.74,96.61q-3.81,1.59-7.68,3.05A255.4,255.4,0,0,1,256,512q-13.11,0-25.88-1.29a253.91,253.91,0,0,1-60-13.47Q165,495.42,160,493.36l-8.82-97.47-2.81-31.06-.51-5.63-.5-5.53-.83-9.11-.2-2.26a43.88,43.88,0,0,1,4.52-24.07,35.87,35.87,0,0,1,5.66-8.13,29.73,29.73,0,0,1,8.56-6.47A25.11,25.11,0,0,1,176.29,301H337.74a25.62,25.62,0,0,1,14.06,4.27,32.13,32.13,0,0,1,8.35,8h0a38.14,38.14,0,0,1,4.43,7.9A44.48,44.48,0,0,1,367.74,342.3Z"/><path class="cls-16" d="M367.74,342.3l-4.85,53.59H320.58a23.13,23.13,0,0,1-21.7-15.33,44.9,44.9,0,0,0-84.4,0,23.13,23.13,0,0,1-21.7,15.33H151.13l-4.85-53.59c-2-22.06,12-41.35,30-41.35H337.74C355.74,301,369.74,320.24,367.74,342.3Z"/><rect class="cls-4" x="186.84" y="396.33" width="137.45" height="48" rx="17.48"/><circle class="cls-17" cx="211.79" cy="460.33" r="9.79"/><circle class="cls-17" cx="255.56" cy="460.33" r="9.79"/><circle class="cls-17" cx="300.48" cy="460.33" r="9.79"/><rect class="cls-18" x="205.8" y="409.9" width="100.75" height="20.86" rx="10.43"/><path class="cls-19" d="M224.12,444.33h-20.6A17.47,17.47,0,0,1,186,426.85v-13a17.48,17.48,0,0,1,17.48-17.48h16.25l0-.44-2-22.29-.11-1.17a44.84,44.84,0,0,0-3.93,8.13A23.13,23.13,0,0,1,192,395.89H150.33L159.12,493l.83.33q5,2.06,10.21,3.88a253.91,253.91,0,0,0,60,13.47Zm-12.83,25.78H211a9.79,9.79,0,0,1,0-19.58h.5A9.71,9.71,0,0,1,214,451a2.43,2.43,0,0,1,.38.13l.49.19.39.18a9.86,9.86,0,0,1,1.22.7l.39.28a9.32,9.32,0,0,1,1.06.92c.11.11.22.22.32.34s.2.22.3.34a8.56,8.56,0,0,1,.83,1.17c.08.12.15.24.22.37a9.6,9.6,0,0,1,1,2.79,9.07,9.07,0,0,1,.14.91c0,.33.05.66.05,1a9.9,9.9,0,0,1-.11,1.45c0,.15,0,.31-.08.46s-.08.39-.13.58l-.12.42c-.05.16-.1.31-.16.46s-.11.3-.17.44a9.3,9.3,0,0,1-.43.9c-.07.13-.14.25-.22.37s-.16.26-.25.39l-.28.39a3.37,3.37,0,0,1-.29.37,9.15,9.15,0,0,1-1.32,1.32,3.37,3.37,0,0,1-.37.29l-.39.28a9.86,9.86,0,0,1-1.22.7c-.13.07-.26.12-.39.18a4.94,4.94,0,0,1-.49.19,2.43,2.43,0,0,1-.38.13,9.71,9.71,0,0,1-2.49.46Z"/><path class="cls-20" d="M213.68,380.56a44.84,44.84,0,0,1,3.93-8.13l-2.73-30.13c-2-22.06,12-41.35,30-41.35h-69.4c-18,0-32,19.29-30,41.35l4.85,53.59H192A23.13,23.13,0,0,0,213.68,380.56Z"/><path class="cls-6" d="M186,413.81v13a17.47,17.47,0,0,0,17.48,17.48h20.6l-1.23-13.57h-7.45a10.43,10.43,0,0,1,0-20.86H221l-1.23-13.57H203.52A17.48,17.48,0,0,0,186,413.81Z"/><circle class="cls-21" cx="210.99" cy="460.33" r="9.79" transform="translate(-100.12 60.79) rotate(-13.28)"/><path class="cls-22" d="M215.44,409.9a10.43,10.43,0,0,0,0,20.86h7.45L221,409.9Z"/></g></svg>