<svg xmlns="http://www.w3.org/2000/svg" viewBox="0 0 512 512"><defs><style>.cls-1{fill:#334079;}.cls-2{fill:#2f3b65;}.cls-18,.cls-3,.cls-4,.cls-5,.cls-6{fill:none;stroke-linecap:round;stroke-width:10px;}.cls-3{stroke:#d9e175;}.cls-3,.cls-5,.cls-6{stroke-linejoin:round;}.cls-4{stroke:#91c7ee;}.cls-18,.cls-4{stroke-miterlimit:10;}.cls-5{stroke:#8cc080;}.cls-6{stroke:#fff;}.cls-7{fill:#678a5d;}.cls-8{fill:#8cc080;}.cls-9{fill:#b7c9da;}.cls-10{fill:#c9dcf1;}.cls-11{fill:#7aa36d;}.cls-12{fill:#e2a054;}.cls-13{fill:#df9231;}.cls-14{fill:#efc788;}.cls-15{fill:#c2a077;}.cls-16{fill:#d9b37f;}.cls-17{fill:#2b3060;}.cls-18{stroke:#c2a077;}</style></defs><title>Artificial Intelligence</title><g id="BULINE"><circle class="cls-1" cx="256" cy="256" r="256"/></g><g id="Icons"><circle class="cls-2" cx="255.27" cy="263.72" r="189.39"/><polyline class="cls-3" points="171.97 230.44 127.37 185.84 127.37 112.11"/><line class="cls-4" x1="149.67" y1="251.44" x2="53.97" y2="251.44"/><polyline class="cls-5" points="149.67 308.44 90.97 308.44 51.97 347.44"/><circle class="cls-3" cx="127.37" cy="99.83" r="12.28"/><circle class="cls-6" cx="176.25" cy="124.38" r="12.28"/><circle class="cls-4" cx="39.69" cy="251.44" r="12.28"/><circle class="cls-5" cx="41.69" cy="356.18" r="12.28"/><polyline class="cls-6" points="208.21 202.11 176.25 170.14 176.25 140.44"/><polyline class="cls-3" points="338.17 230.44 382.78 185.84 382.78 112.11"/><line class="cls-4" x1="360.47" y1="251.44" x2="456.17" y2="251.44"/><polyline class="cls-5" points="360.48 308.44 419.17 308.44 458.17 347.44"/><circle class="cls-3" cx="382.78" cy="99.83" r="12.28"/><circle class="cls-6" cx="333.9" cy="124.38" r="12.28"/><circle class="cls-4" cx="470.45" cy="251.44" r="12.28"/><circle class="cls-5" cx="468.45" cy="356.18" r="12.28"/><polyline class="cls-6" points="301.93 202.11 333.9 170.14 333.9 140.44"/><path class="cls-7" d="M241.23,160.39h28.09a0,0,0,0,1,0,0v0a8.34,8.34,0,0,1-8.34,8.34H249.56a8.34,8.34,0,0,1-8.34-8.34v0A0,0,0,0,1,241.23,160.39Z"/><path class="cls-8" d="M233.26,136.79h44a0,0,0,0,1,0,0v9.7a15.57,15.57,0,0,1-15.57,15.57H248.83a15.57,15.57,0,0,1-15.57-15.57v-9.7A0,0,0,0,1,233.26,136.79Z"/><path class="cls-9" d="M309.41,64.36a54,54,0,0,1-14.91,37.31A53.9,53.9,0,0,0,280.08,134a4.71,4.71,0,0,1-4.68,4.34H235.15a4.71,4.71,0,0,1-4.68-4.35A52.43,52.43,0,0,0,216.35,102a54.15,54.15,0,1,1,93.06-37.65Z"/><path class="cls-10" d="M309.41,64.36a54,54,0,0,1-14.91,37.31A53.9,53.9,0,0,0,280.08,134a4.71,4.71,0,0,1-4.68,4.34H258.47a4.72,4.72,0,0,1-4.69-4.35A52.4,52.4,0,0,0,239.68,102a54.16,54.16,0,0,1,27.23-90.54A54.17,54.17,0,0,1,309.41,64.36Z"/><rect class="cls-11" x="228.55" y="144.98" width="53.44" height="8.9" rx="4.45"/><path class="cls-12" d="M280.41,186.45H228.47a108.78,108.78,0,0,0-108.79,108.8V371h19.77v-67.9c0-1,0-1.95.08-2.91a253.86,253.86,0,0,0,44.31-3.8c70.53-12.49,103.21-51.58,103.21-51.58,25.25,54.3,81,55.35,83.18,55.38h.08V371H389.2V295.25A108.8,108.8,0,0,0,280.41,186.45Z"/><path class="cls-13" d="M287.05,244.8s-32.68,39.09-103.21,51.58a253.86,253.86,0,0,1-44.31,3.8c-.05,1-.08,1.93-.08,2.91V371H119.68V295.25a108.73,108.73,0,0,1,54-94C190.68,222.41,224.26,247.44,287.05,244.8Z"/><circle class="cls-14" cx="139.45" cy="363.27" r="28.57"/><circle class="cls-15" cx="139.45" cy="363.27" r="12.63"/><circle class="cls-14" cx="370.31" cy="363.27" r="28.57"/><circle class="cls-15" cx="370.31" cy="363.27" r="12.63"/><path class="cls-16" d="M183.84,385.51V296.38a253.81,253.81,0,0,1-44.32,3.8c0,1-.07,1.93-.07,2.91v81.1c0,63.58,52,116.84,115.6,116.75a115.89,115.89,0,0,0,22-2.14A115.46,115.46,0,0,1,183.84,385.51Z"/><path class="cls-14" d="M370.24,300.18c-2.18,0-57.94-1.09-83.19-55.37,0,0-32.68,39.08-103.21,51.57v89.13A115.46,115.46,0,0,0,277.08,498.8a115.45,115.45,0,0,0,93.23-113.29V303.09C370.31,302.11,370.28,301.14,370.24,300.18Z"/><rect class="cls-17" x="189.44" y="341.02" width="22.96" height="39.27" rx="11.02"/><rect class="cls-17" x="297.37" y="341.02" width="22.96" height="39.27" rx="11.02"/><rect class="cls-15" x="235.12" y="386.09" width="37.34" height="19.67" rx="9.83"/><path class="cls-18" d="M230.62,431.5a23.18,23.18,0,1,0,46.35,0"/><path class="cls-14" d="M370.31,303.09v-2.91h-.07C370.28,301.14,370.31,302.11,370.31,303.09Z"/></g></svg>